<?xml version="1.0" encoding="UTF-8"?><svg xmlns="http://www.w3.org/2000/svg" xmlns:xlink="http://www.w3.org/1999/xlink" viewBox="0 0 444 373.89"><defs><style>.cls-1{fill:#fff;}.cls-2{opacity:.5;}.cls-3{fill:url(#_Áåçûìÿííûé_ãðàäèåíò_18);}.cls-4{fill:url(#_Áåçûìÿííûé_ãðàäèåíò_21);}.cls-5{fill:#6ee1f8;}.cls-6,.cls-7{opacity:.8;}.cls-6,.cls-8,.cls-9{mix-blend-mode:lighten;}.cls-6,.cls-10,.cls-9{fill:#d4088c;}.cls-11{isolation:isolate;}.cls-12{fill:url(#_Áåçûìÿííûé_ãðàäèåíò_29-4);}.cls-7{fill:#0c0f38;}.cls-13,.cls-8{fill:#6ee8fc;}.cls-14{fill:url(#_Áåçûìÿííûé_ãðàäèåíò_14);}.cls-15{fill:url(#_Áåçûìÿííûé_ãðàäèåíò_6-2);}.cls-16{fill:url(#_Áåçûìÿííûé_ãðàäèåíò_29-3);}.cls-17{opacity:.11;}.cls-18{fill:url(#_Áåçûìÿííûé_ãðàäèåíò_103);}.cls-19{fill:url(#_Áåçûìÿííûé_ãðàäèåíò_29-5);}.cls-20{fill:url(#_Áåçûìÿííûé_ãðàäèåíò_29-2);}.cls-21{clip-path:url(#clippath);}.cls-22{fill:none;}.cls-23{fill:url(#_Áåçûìÿííûé_ãðàäèåíò_3-2);}.cls-24{fill:url(#_Áåçûìÿííûé_ãðàäèåíò_6);}.cls-25{fill:url(#_Áåçûìÿííûé_ãðàäèåíò_29);}.cls-26{fill:#3a9bd5;}.cls-27{fill:url(#_Áåçûìÿííûé_ãðàäèåíò_28);}.cls-28{fill:url(#_Áåçûìÿííûé_ãðàäèåíò_3);}.cls-29{fill:url(#_Áåçûìÿííûé_ãðàäèåíò_28-2);}</style><linearGradient id="_Áåçûìÿííûé_ãðàäèåíò_18" x1="1507.97" y1="-1174.8" x2="1567.56" y2="-1174.8" gradientTransform="translate(286.45 -1644.77) rotate(135)" gradientUnits="userSpaceOnUse"><stop offset="0" stop-color="#d4088c"/><stop offset=".04" stop-color="#cb078b"/><stop offset=".46" stop-color="#85068a"/><stop offset=".76" stop-color="#580689"/><stop offset=".91" stop-color="#480689"/></linearGradient><linearGradient id="_Áåçûìÿííûé_ãðàäèåíò_28" x1="479.46" y1="-1561.59" x2="504.13" y2="-1561.59" gradientTransform="translate(560.15 -1498.82) rotate(-180)" gradientUnits="userSpaceOnUse"><stop offset="0" stop-color="#6ee8fc"/><stop offset=".16" stop-color="#69e1fa"/><stop offset=".37" stop-color="#5ed0f6"/><stop offset=".61" stop-color="#4ab4f0"/><stop offset=".87" stop-color="#308ee8"/><stop offset=".96" stop-color="#267fe5"/></linearGradient><linearGradient id="_Áåçûìÿííûé_ãðàäèåíò_28-2" x1="650.54" y1="685.98" x2="706.01" y2="685.98" gradientTransform="translate(856.82 -675.98) rotate(71.42)" xlink:href="#_Áåçûìÿííûé_ãðàäèåíò_28"/><linearGradient id="_Áåçûìÿííûé_ãðàäèåíò_6" x1="-5002" y1="162.99" x2="-4828.42" y2="162.99" gradientTransform="translate(-4649.38) rotate(-180) scale(1 -1)" gradientUnits="userSpaceOnUse"><stop offset="0" stop-color="#7bdaff"/><stop offset="1" stop-color="#59bdef"/></linearGradient><linearGradient id="_Áåçûìÿííûé_ãðàäèåíò_14" x1="-4999.64" y1="163.75" x2="-4826.06" y2="163.75" gradientTransform="translate(-4649.38) rotate(-180) scale(1 -1)" gradientUnits="userSpaceOnUse"><stop offset="0" stop-color="#2573ba"/><stop offset="1" stop-color="#0063ad"/></linearGradient><linearGradient id="_Áåçûìÿííûé_ãðàäèåíò_3" x1="-4999.64" y1="163.75" x2="-4826.06" y2="163.75" gradientTransform="translate(-4649.38) rotate(-180) scale(1 -1)" gradientUnits="userSpaceOnUse"><stop offset="0" stop-color="#2c75e4"/><stop offset=".04" stop-color="#3361d4"/><stop offset=".13" stop-color="#4040bb"/><stop offset=".22" stop-color="#4b26a7"/><stop offset=".32" stop-color="#521499"/><stop offset=".41" stop-color="#560990"/><stop offset=".52" stop-color="#58068e"/><stop offset=".66" stop-color="#5a068f"/><stop offset=".76" stop-color="#640a92"/><stop offset=".85" stop-color="#740f98"/><stop offset=".93" stop-color="#8a16a0"/><stop offset="1" stop-color="#a31fa9"/></linearGradient><linearGradient id="_Áåçûìÿííûé_ãðàäèåíò_6-2" x1="-4996.07" y1="163.77" x2="-4829.79" y2="163.77" xlink:href="#_Áåçûìÿííûé_ãðàäèåíò_6"/><linearGradient id="_Áåçûìÿííûé_ãðàäèåíò_3-2" x1="-4978.74" y1="257.55" x2="-4733.59" y2="257.55" xlink:href="#_Áåçûìÿííûé_ãðàäèåíò_3"/><radialGradient id="_Áåçûìÿííûé_ãðàäèåíò_103" cx="-4986.25" cy="269.23" fx="-4986.25" fy="269.23" r="260.28" gradientTransform="translate(-4649.38) rotate(-180) scale(1 -1)" gradientUnits="userSpaceOnUse"><stop offset="0" stop-color="#2979e4"/><stop offset=".24" stop-color="#4958cc"/><stop offset=".57" stop-color="#6d32b1"/><stop offset=".83" stop-color="#841ba1"/><stop offset="1" stop-color="#8d139b"/></radialGradient><clipPath id="clippath"><polygon class="cls-22" points="199.98 68.97 346.69 153.67 328.73 259.56 182.12 174.91 199.98 68.97"/></clipPath><linearGradient id="_Áåçûìÿííûé_ãðàäèåíò_21" x1="-5008.73" y1="196.89" x2="-4735.67" y2="196.89" gradientTransform="translate(-4649.38) rotate(-180) scale(1 -1)" gradientUnits="userSpaceOnUse"><stop offset="0" stop-color="#c0bff6"/><stop offset=".29" stop-color="#c4c3f6"/><stop offset=".64" stop-color="#d2d2f9"/><stop offset="1" stop-color="#e9e9fd"/></linearGradient><radialGradient id="_Áåçûìÿííûé_ãðàäèåíò_29" cx="273.37" cy="212.82" fx="273.37" fy="212.82" r="50.88" gradientUnits="userSpaceOnUse"><stop offset="0" stop-color="#22215b"/><stop offset=".33" stop-color="#1e1e55"/><stop offset=".75" stop-color="#141544"/><stop offset="1" stop-color="#0c0f38"/></radialGradient><radialGradient id="_Áåçûìÿííûé_ãðàäèåíò_29-2" cx="283.03" cy="203.82" fx="283.03" fy="203.82" r="48.45" xlink:href="#_Áåçûìÿííûé_ãðàäèåíò_29"/><radialGradient id="_Áåçûìÿííûé_ãðàäèåíò_29-3" cx="300.52" cy="204.78" fx="300.52" fy="204.78" r="56.27" xlink:href="#_Áåçûìÿííûé_ãðàäèåíò_29"/><radialGradient id="_Áåçûìÿííûé_ãðàäèåíò_29-4" cx="308.44" cy="200.21" fx="308.44" fy="200.21" r="56.27" xlink:href="#_Áåçûìÿííûé_ãðàäèåíò_29"/><radialGradient id="_Áåçûìÿííûé_ãðàäèåíò_29-5" cx="316.35" cy="195.64" fx="316.35" fy="195.64" r="56.27" xlink:href="#_Áåçûìÿííûé_ãðàäèåíò_29"/></defs><g class="cls-11"><g id="Camada_2"><g id="Camada_1-2"><g><g><circle class="cls-3" cx="29.79" cy="273.28" r="29.79"/><circle class="cls-27" cx="68.36" cy="62.77" r="12.34"/><circle class="cls-29" cx="421.82" cy="182.95" r="22.17" transform="translate(-5.82 351.86) rotate(-45)"/><path class="cls-7" d="M427.5,272.77c-8.92,1.73-18.58-1.04-21.57-6.19-3-5.15,1.8-10.72,10.72-12.45,8.92-1.73,18.58,1.04,21.57,6.19,3,5.15-1.8,10.72-10.72,12.45Z"/><path class="cls-7" d="M37.7,373.18c-12.41,2.41-25.84-1.45-30.01-8.61-4.17-7.16,2.51-14.92,14.91-17.33,12.41-2.41,25.84,1.45,30.01,8.61,4.17,7.16-2.51,14.92-14.91,17.33Z"/><path class="cls-7" d="M71.07,112.64c-4.45,.86-9.28-.52-10.77-3.09-1.5-2.57,.9-5.36,5.35-6.22s9.28,.52,10.77,3.09c1.5,2.57-.9,5.36-5.35,6.22Z"/><g><circle class="cls-6" cx="149.87" cy="11.43" r="3.16"/><circle class="cls-6" cx="94.46" cy="332.84" r="3.81"/><path class="cls-8" d="M72.28,315.99c0,1.08-.88,1.96-1.96,1.96s-1.96-.88-1.96-1.96,.88-1.96,1.96-1.96,1.96,.88,1.96,1.96Z"/><path class="cls-8" d="M405.04,243.62c0,1.12-.91,2.03-2.03,2.03s-2.03-.91-2.03-2.03,.91-2.03,2.03-2.03,2.03,.91,2.03,2.03Z"/><g><circle class="cls-8" cx="27.29" cy="106.85" r="2.85"/><path class="cls-8" d="M243.3,2.85c0,1.58-1.28,2.85-2.85,2.85s-2.85-1.28-2.85-2.85,1.28-2.85,2.85-2.85,2.85,1.28,2.85,2.85Z"/><path class="cls-8" d="M41.76,100.53c0,.87-.71,1.58-1.58,1.58s-1.58-.71-1.58-1.58,.71-1.58,1.58-1.58,1.58,.71,1.58,1.58Z"/></g><path class="cls-9" d="M313.61,13.04c0,1.03-.84,1.87-1.87,1.87s-1.87-.84-1.87-1.87,.84-1.87,1.87-1.87,1.87,.84,1.87,1.87Z"/></g><g><polygon class="cls-5" points="39.59 200.37 38.9 197.93 44.33 196.41 42.81 190.99 45.25 190.3 47.45 198.17 39.59 200.37"/><polygon class="cls-5" points="34.8 208.87 34.12 206.43 39.54 204.92 38.03 199.49 40.47 198.81 42.67 206.67 34.8 208.87"/><polygon class="cls-5" points="39.89 206.14 37.68 198.27 45.55 196.07 46.23 198.51 40.81 200.03 42.33 205.45 39.89 206.14"/></g><path class="cls-5" d="M227.04,19.07c-3.33,0-6.03-2.71-6.03-6.03s2.71-6.03,6.03-6.03,6.03,2.71,6.03,6.03-2.71,6.03-6.03,6.03Zm0-9.53c-1.93,0-3.5,1.57-3.5,3.5s1.57,3.5,3.5,3.5,3.5-1.57,3.5-3.5-1.57-3.5-3.5-3.5Z"/><path class="cls-5" d="M359.35,320.87l-6.85-6.85,6.85-6.85,6.85,6.85-6.85,6.85Zm-3.26-6.85l3.26,3.26,3.26-3.26-3.26-3.26-3.26,3.26Z"/><g><rect class="cls-10" x="377.15" y="70.4" width="2.53" height="10.36" transform="translate(57.41 289.75) rotate(-45.01)"/><rect class="cls-10" x="373.24" y="74.31" width="10.36" height="2.53" transform="translate(57.39 289.72) rotate(-45)"/></g></g><path class="cls-9" d="M4.58,159.58c0,1.03-.84,1.87-1.87,1.87s-1.87-.84-1.87-1.87,.84-1.87,1.87-1.87,1.87,.84,1.87,1.87Z"/><g><path class="cls-7" d="M85.47,259.77l148.73,85.87c1.63,.94,4.09,1.04,5.5,.23l88.75-51.24c1.41-.81,1.23-2.24-.39-3.18l-148.73-85.87c-1.63-.94-4.09-1.04-5.5-.23l-88.75,51.24c-1.41,.81-1.23,2.24,.39,3.18Z"/><g><g><g><g><path class="cls-24" d="M179.06,173.79l18.8-111.54-1.51-.64,2.27-1.3h0c.44-.28,1.06-.26,1.75,.13l150.26,86.75c1.23,.71,2.17,2.54,1.95,3.82l-18.95,112.43c-.1,.59-.39,.97-.79,1.14h0s-2.22,1.28-2.22,1.28l-.38-2.08,.13,.04-149.35-86.23c-1.23-.71-2.17-2.54-1.95-3.82Z"/><path class="cls-26" d="M349.8,150.24l2.47-1.09c.28,.63,.41,1.3,.32,1.86l-18.95,112.43c-.1,.59-.39,.97-.79,1.14h0s-2.22,1.28-2.22,1.28l-.38-2.08,.13,.04-7.56-4.36,26.99-109.23Z"/><path class="cls-14" d="M178.66,178.96l150.26,86.75c1.16,.67,2.15,.28,2.36-.92l18.95-112.43c.22-1.28-.72-3.1-1.95-3.82L198.02,61.79c-1.16-.67-2.15-.28-2.36,.92l-18.95,112.43c-.22,1.28,.72,3.1,1.95,3.82Z"/><path class="cls-28" d="M178.66,178.96l150.26,86.75c1.16,.67,2.15,.28,2.36-.92l18.95-112.43c.22-1.28-.72-3.1-1.95-3.82L198.02,61.79c-1.16-.67-2.15-.28-2.36,.92l-18.95,112.43c-.22,1.28,.72,3.1,1.95,3.82Z"/><polygon class="cls-15" points="198.28 67.98 346.69 153.67 328.73 259.56 180.41 173.92 198.28 67.98"/></g><g><path class="cls-23" d="M84.21,232.19l8.2,4.28,82.23-47.47c1.38-.79,3.78-.69,5.37,.22l141.82,81.88c1.36-.76,7.54-3.73,7.54-3.73l-3,7.82s-.01,0-.01,0c-.12,.35-.39,.67-.84,.93l-86.6,50c-1.38,.79-3.78,.69-5.37-.22L88.42,242.09c-.65-.38-1.05-.83-1.22-1.29h-.01s-2.98-8.61-2.98-8.61Z"/><path class="cls-18" d="M85.47,233.53l148.73,85.87c1.63,.94,4.09,1.04,5.5,.23l88.75-51.24c1.41-.81,1.23-2.24-.39-3.18l-148.73-85.87c-1.63-.94-4.09-1.04-5.5-.23l-88.75,51.24c-1.41,.81-1.23,2.24,.39,3.18Z"/><path class="cls-13" d="M85.47,232.08l148.73,85.87c1.63,.94,4.09,1.04,5.5,.23l88.75-51.24c.34-.19,.58-.42,.74-.67,.44,.76,.21,1.58-.74,2.12l-88.75,51.24c-1.41,.81-3.87,.71-5.5-.23L85.47,233.53c-1.24-.72-1.64-1.71-1.13-2.51,.22,.38,.59,.74,1.13,1.05Z"/></g></g><g class="cls-17"><g class="cls-21"><g><path class="cls-4" d="M179.54,179.26l165.58,95.6c1.81,1.05,4.55,1.16,6.12,.25l98.81-57.05c1.57-.91,1.37-2.49-.44-3.54l-165.58-95.6c-1.81-1.05-4.55-1.16-6.12-.25l-98.81,57.05c-1.57,.91-1.37,2.49,.44,3.54Z"/><g><polygon class="cls-25" points="215.81 176.85 335.68 246.06 330.93 248.8 211.06 179.59 215.81 176.85"/><polygon class="cls-20" points="228.44 169.56 342.38 235.34 337.63 238.08 223.69 172.3 228.44 169.56"/><polygon class="cls-5" points="350.88 240.25 361.52 246.39 356.78 249.13 346.14 242.99 350.88 240.25"/><polygon class="cls-5" points="341.49 249.41 348.89 253.68 344.15 256.43 336.74 252.15 341.49 249.41"/><polygon class="cls-16" points="236.36 164.99 369.44 241.82 364.69 244.56 231.61 167.73 236.36 164.99"/><polygon class="cls-12" points="244.27 160.42 377.35 237.25 372.6 240 239.52 163.16 244.27 160.42"/><polygon class="cls-19" points="252.18 155.85 385.27 232.68 380.52 235.43 247.43 158.59 252.18 155.85"/></g></g></g></g></g><g><polygon class="cls-5" points="175.74 198.68 283.1 260.67 287.87 257.91 180.51 195.93 175.74 198.68"/><polygon class="cls-5" points="164.04 205.44 264.74 263.58 269.51 260.82 168.81 202.68 164.04 205.44"/><polygon class="cls-5" points="156.41 209.84 274.98 278.29 279.75 275.54 161.19 207.09 156.41 209.84"/><polygon class="cls-5" points="148.79 214.24 267.35 282.69 272.13 279.94 153.56 211.49 148.79 214.24"/><polygon class="cls-5" points="141.17 218.64 259.73 287.1 264.51 284.34 145.94 215.89 141.17 218.64"/><polygon class="cls-5" points="289.59 264.41 294.36 267.17 299.13 264.41 294.36 261.66 289.59 264.41"/><polygon class="cls-5" points="272.75 268.21 282.66 273.93 287.43 271.17 277.52 265.45 272.75 268.21"/></g></g><g class="cls-2"><polygon class="cls-1" points="210.54 99.62 220.35 105.29 220.64 103.59 210.83 97.92 210.54 99.62"/><polygon class="cls-1" points="221.93 106.19 227.28 109.28 227.56 107.58 222.22 104.49 221.93 106.19"/><polygon class="cls-1" points="235.59 114.08 239.46 116.32 239.75 114.61 235.88 112.38 235.59 114.08"/><polygon class="cls-1" points="232.77 112.45 234.09 113.22 234.38 111.51 233.06 110.75 232.77 112.45"/><polygon class="cls-1" points="228.87 110.2 231.27 111.59 231.56 109.88 229.16 108.5 228.87 110.2"/><polygon class="cls-1" points="218.3 112.65 222.17 114.88 222.46 113.18 218.59 110.95 218.3 112.65"/><polygon class="cls-1" points="209.23 107.4 216.81 111.78 217.09 110.08 209.51 105.7 209.23 107.4"/><g><polygon class="cls-1" points="220.1 135.01 227.67 139.39 227.96 137.69 220.38 133.31 220.1 135.01"/><polygon class="cls-1" points="216.2 132.76 218.6 134.14 218.88 132.44 216.48 131.05 216.2 132.76"/></g><polygon class="cls-1" points="221.36 127.22 228.94 131.6 229.22 129.89 221.65 125.51 221.36 127.22"/><polygon class="cls-1" points="217.46 124.96 219.86 126.35 220.15 124.65 217.75 123.26 217.46 124.96"/><polygon class="cls-1" points="214.51 168.64 200.23 160.4 199.94 162.1 214.22 170.35 214.51 168.64"/><polygon class="cls-1" points="219.54 171.55 216.01 169.51 215.72 171.21 219.25 173.25 219.54 171.55"/><polygon class="cls-1" points="244.62 173.2 230.35 164.95 230.06 166.66 244.34 174.91 244.62 173.2"/><polygon class="cls-1" points="249.66 176.11 246.12 174.07 245.84 175.77 249.37 177.81 249.66 176.11"/><polygon class="cls-1" points="204.75 158.74 200.89 156.5 200.6 158.21 204.47 160.44 204.75 158.74"/><polygon class="cls-1" points="228.29 163.78 224.42 161.55 224.13 163.25 228 165.49 228.29 163.78"/><polygon class="cls-1" points="213.83 163.98 206.25 159.61 205.97 161.31 213.54 165.69 213.83 163.98"/><polygon class="cls-1" points="217.73 166.24 215.33 164.85 215.04 166.55 217.44 167.94 217.73 166.24"/><polygon class="cls-1" points="226.88 171.51 219.3 167.13 219.01 168.84 226.59 173.22 226.88 171.51"/><polygon class="cls-1" points="230.78 173.77 228.38 172.38 228.09 174.08 230.49 175.47 230.78 173.77"/><polygon class="cls-1" points="227.63 167.68 223.76 165.44 223.47 167.14 227.34 169.38 227.63 167.68"/><polygon class="cls-1" points="236.71 172.92 229.13 168.54 228.84 170.25 236.42 174.62 236.71 172.92"/><polygon class="cls-1" points="240.61 175.17 238.21 173.79 237.92 175.49 240.32 176.88 240.61 175.17"/><polygon class="cls-1" points="209.46 157.19 201.54 152.61 201.26 154.32 209.17 158.89 209.46 157.19"/><polygon class="cls-1" points="216.68 161.36 210.96 158.05 210.67 159.76 216.39 163.06 216.68 161.36"/><polygon class="cls-1" points="222.05 164.46 218.18 162.22 217.89 163.93 221.76 166.16 222.05 164.46"/><polygon class="cls-1" points="259.56 181.81 251.64 177.24 251.36 178.94 259.27 183.52 259.56 181.81"/><polygon class="cls-1" points="266.78 185.99 261.06 182.68 260.77 184.38 266.49 187.69 266.78 185.99"/><polygon class="cls-1" points="272.15 189.09 268.28 186.85 267.99 188.56 271.86 190.79 272.15 189.09"/><polygon class="cls-1" points="256.46 130.4 264.37 134.97 264.66 133.27 256.75 128.69 256.46 130.4"/><polygon class="cls-1" points="249.24 126.22 254.96 129.53 255.25 127.83 249.53 124.52 249.24 126.22"/><polygon class="cls-1" points="243.87 123.12 247.74 125.36 248.03 123.65 244.16 121.42 243.87 123.12"/><polygon class="cls-1" points="253.83 124.59 261.75 129.16 262.03 127.46 254.12 122.89 253.83 124.59"/><polygon class="cls-1" points="246.61 120.42 252.33 123.73 252.62 122.02 246.9 118.72 246.61 120.42"/><polygon class="cls-1" points="241.24 117.32 245.11 119.55 245.4 117.85 241.53 115.61 241.24 117.32"/><polygon class="cls-1" points="221.88 131.79 224.55 133.34 224.84 131.63 222.17 130.09 221.88 131.79"/><polygon class="cls-1" points="216.85 128.89 220.38 130.93 220.67 129.22 217.14 127.18 216.85 128.89"/><polygon class="cls-1" points="210.17 153.32 202.25 148.74 201.96 150.45 209.88 155.02 210.17 153.32"/><polygon class="cls-1" points="217.39 157.49 211.66 154.18 211.38 155.89 217.1 159.19 217.39 157.49"/><polygon class="cls-1" points="222.75 160.59 218.89 158.36 218.6 160.06 222.47 162.29 222.75 160.59"/><polygon class="cls-1" points="205.58 146.4 202.91 144.85 202.62 146.56 205.29 148.1 205.58 146.4"/><polygon class="cls-1" points="210.61 149.3 207.08 147.26 206.79 148.97 210.32 151.01 210.61 149.3"/><polygon class="cls-1" points="217.8 153.46 212.11 150.17 211.82 151.87 217.52 155.16 217.8 153.46"/><polygon class="cls-1" points="225.52 121.06 228.19 122.61 228.48 120.9 225.8 119.36 225.52 121.06"/><polygon class="cls-1" points="220.48 118.16 224.02 120.2 224.3 118.49 220.77 116.45 220.48 118.16"/><polygon class="cls-1" points="213.29 114 218.99 117.29 219.27 115.59 213.58 112.3 213.29 114"/><polygon class="cls-1" points="229.59 127.38 235.28 130.67 235.57 128.96 229.87 125.68 229.59 127.38"/><polygon class="cls-1" points="220.28 122.31 227.95 126.74 228.24 125.04 220.57 120.6 220.28 122.31"/><polygon class="cls-1" points="216.38 120.05 218.78 121.44 219.07 119.74 216.67 118.35 216.38 120.05"/><polygon class="cls-1" points="212.64 117.89 215.04 119.28 215.32 117.58 212.92 116.19 212.64 117.89"/><g><polygon class="cls-1" points="213.15 139.88 220.73 144.26 221.02 142.56 213.44 138.18 213.15 139.88"/><polygon class="cls-1" points="209.26 137.63 211.66 139.01 211.94 137.31 209.54 135.92 209.26 137.63"/><polygon class="cls-1" points="213.68 144.46 216.35 146 216.64 144.3 213.96 142.75 213.68 144.46"/><polygon class="cls-1" points="223.11 141.34 225.78 142.88 226.07 141.18 223.4 139.63 223.11 141.34"/><polygon class="cls-1" points="226.92 143.54 233.34 147.24 233.62 145.54 227.21 141.83 226.92 143.54"/><polygon class="cls-1" points="234.47 147.89 238.29 150.1 238.58 148.39 234.76 146.19 234.47 147.89"/><polygon class="cls-1" points="208.64 141.55 212.18 143.59 212.46 141.89 208.93 139.85 208.64 141.55"/><g><polygon class="cls-1" points="208.31 145.55 210.99 147.09 211.27 145.39 208.6 143.84 208.31 145.55"/><polygon class="cls-1" points="203.28 142.64 206.81 144.68 207.1 142.98 203.57 140.94 203.28 142.64"/></g><polygon class="cls-1" points="219.23 139.1 221.63 140.49 221.92 138.78 219.52 137.4 219.23 139.1"/><polygon class="cls-1" points="215.49 136.94 217.89 138.32 218.18 136.62 215.78 135.23 215.49 136.94"/></g><polygon class="cls-1" points="233.92 117.38 242.11 122.11 242.4 120.4 234.21 115.67 233.92 117.38"/><polygon class="cls-1" points="224.75 112.08 232.43 116.51 232.71 114.81 225.04 110.37 224.75 112.08"/><polygon class="cls-1" points="220.85 109.83 223.25 111.21 223.54 109.51 221.14 108.12 220.85 109.83"/><polygon class="cls-1" points="217.11 107.66 219.51 109.05 219.8 107.35 217.4 105.96 217.11 107.66"/><polygon class="cls-1" points="215.07 106.48 209.89 103.49 210.17 101.79 215.35 104.78 215.07 106.48"/></g></g></g></g></g></g></svg>